<?xml version="1.0" encoding="UTF-8" standalone="no"?>
<svg width="43px" height="43px" viewBox="0 0 43 43" version="1.1" xmlns="http://www.w3.org/2000/svg" xmlns:xlink="http://www.w3.org/1999/xlink" xmlns:sketch="http://www.bohemiancoding.com/sketch/ns">
    <!-- Generator: Sketch 3.0.2 (7799) - http://www.bohemiancoding.com/sketch -->
    <title>Imported Layers</title>
    <description>Created with Sketch.</description>
    <defs></defs>
    <g id="Page-1" stroke="none" stroke-width="1" fill="none" fill-rule="evenodd" sketch:type="MSPage">
        <g id="Mobile-Portrait" sketch:type="MSArtboardGroup" transform="translate(-33.000000, -460.000000)" fill="#F8E81C">
            <g id="LIST-ITEMS" sketch:type="MSLayerGroup" transform="translate(0.000000, 432.000000)">
                <g id="meat" sketch:type="MSShapeGroup">
                    <g id="meat-+-Imported-Layers-+-Imported-Layers" transform="translate(33.000000, 28.000000)">
                        <path d="M21.4358974,42.8729231 C33.2730256,42.8729231 42.8717949,33.2764103 42.8717949,21.4358974 C42.8717949,9.59876923 33.2730256,0 21.4358974,0 C9.59876923,0 0,9.59876923 0,21.4358974 C0,33.2764103 9.59876923,42.8729231 21.4358974,42.8729231 L21.4358974,42.8729231 Z M10.1504615,20.7307692 L12.3504615,18.4935385 C12.7836923,18.0501538 13.502359,18.0445128 13.9446154,18.4777436 L18.694359,23.1394872 L28.8989744,12.9348718 C29.3378462,12.4971282 30.0565128,12.4971282 30.4942564,12.9348718 L32.7134359,15.1540513 C33.1523077,15.5929231 33.1523077,16.3104615 32.7134359,16.7493333 L19.5235897,29.9391795 C19.0847179,30.3780513 18.3660513,30.3780513 17.9283077,29.9391795 C17.9204103,29.9301538 17.9102564,29.9278974 17.902359,29.9211282 L10.1662564,22.3260513 C9.72287179,21.8928205 9.71610256,21.1741538 10.1504615,20.7307692 L10.1504615,20.7307692 Z" id="Imported-Layers"></path>
                    </g>
                </g>
            </g>
        </g>
    </g>
</svg>