<?xml version="1.0" encoding="UTF-8" standalone="no"?>
<svg width="43px" height="43px" viewBox="0 0 43 43" version="1.1" xmlns="http://www.w3.org/2000/svg" xmlns:xlink="http://www.w3.org/1999/xlink" xmlns:sketch="http://www.bohemiancoding.com/sketch/ns">
    <!-- Generator: Sketch 3.0.2 (7799) - http://www.bohemiancoding.com/sketch -->
    <title>Imported Layers</title>
    <description>Created with Sketch.</description>
    <defs></defs>
    <g id="Page-1" stroke="none" stroke-width="1" fill="none" fill-rule="evenodd" sketch:type="MSPage">
        <g id="Mobile-Portrait" sketch:type="MSArtboardGroup" transform="translate(-247.000000, -460.000000)" fill="#1A3B33">
            <g id="LIST-ITEMS" sketch:type="MSLayerGroup" transform="translate(0.000000, 432.000000)">
                <g id="meat" sketch:type="MSShapeGroup">
                    <g id="meat-+-Imported-Layers-+-Imported-Layers" transform="translate(33.000000, 28.000000)">
                        <path d="M235.435897,42.8729231 C247.273026,42.8729231 256.871795,33.2741538 256.871795,21.4358974 C256.871795,9.59876923 247.273026,0 235.435897,0 C223.597641,0 214,9.59876923 214,21.4358974 C214,33.2741538 223.597641,42.8729231 235.435897,42.8729231 L235.435897,42.8729231 Z M225.863077,15.053641 C225.425333,14.6147692 225.425333,13.8972308 225.863077,13.458359 L227.458359,11.8630769 C227.897231,11.4242051 228.615897,11.4242051 229.053641,11.8630769 L235.437026,18.2453333 L241.819282,11.8630769 C242.258154,11.4242051 242.975692,11.4242051 243.414564,11.8630769 L245.009846,13.458359 C245.448718,13.8972308 245.448718,14.6147692 245.009846,15.053641 L238.62759,21.4358974 L245.009846,27.8181538 C245.448718,28.2570256 245.448718,28.9745641 245.009846,29.4134359 L243.414564,31.0087179 C242.975692,31.4475897 242.258154,31.4475897 241.819282,31.0087179 L235.437026,24.6264615 L229.053641,31.0087179 C228.615897,31.4475897 227.897231,31.4475897 227.458359,31.0087179 L225.863077,29.4134359 C225.425333,28.9745641 225.425333,28.2570256 225.863077,27.8181538 L232.245333,21.4358974 L225.863077,15.053641 L225.863077,15.053641 Z" id="Imported-Layers"></path>
                    </g>
                </g>
            </g>
        </g>
    </g>
</svg>